<svg width="20" height="20" viewBox="0 0 20 20" fill="none" xmlns="http://www.w3.org/2000/svg">
<path d="M18.3334 4.62919V15.3709C18.3334 15.9 18.0042 16.3709 17.5084 16.5459L13.8334 18.2709L14.1667 13.75V6.25002L13.8334 1.72919L17.5084 3.45419C18.0042 3.62919 18.3334 4.10002 18.3334 4.62919Z" fill="#29B6F6"/>
<path d="M3.75001 14.1233L14.1667 6.25V2.23041C14.1667 1.73125 13.5492 1.49791 13.2188 1.87208L1.94084 12.1829C1.56584 12.5287 1.58709 13.1275 1.98542 13.4462C1.98542 13.4462 2.53709 13.9596 2.73667 14.1021C3.04334 14.3208 3.44626 14.3458 3.75001 14.1233Z" fill="#0277BD"/>
<path d="M3.75001 5.87667L14.1667 13.75V17.7696C14.1667 18.2688 13.5492 18.5021 13.2188 18.1279L1.94084 7.81709C1.56584 7.47126 1.58709 6.87251 1.98542 6.55376C1.98542 6.55376 2.53709 6.04042 2.73667 5.89792C3.04334 5.67917 3.44626 5.65417 3.75001 5.87667Z" fill="#0288D1"/>
</svg>
